<svg width="1440" height="296" viewBox="0 0 1440 296" fill="none" xmlns="http://www.w3.org/2000/svg">
<g clip-path="url(#clip0_401_609)">
<rect width="1440" height="296" fill="#0B1B2B"/>
<g filter="url(#filter0_f_401_609)">
<circle cx="-12" cy="22" r="118" fill="#14589C"/>
</g>
<g filter="url(#filter1_f_401_609)">
<circle cx="1355.07" cy="42.9365" r="77.6256" transform="rotate(15 1355.07 42.9365)" fill="#14589C"/>
</g>
<rect x="212" y="125" width="69" height="3" rx="1.5" fill="#1562AF" fill-opacity="0.14"/>
<rect x="99" y="125" width="106" height="3" rx="1.5" fill="#1562AF" fill-opacity="0.14"/>
<rect y="125" width="92" height="3" rx="1.5" fill="#1562AF" fill-opacity="0.14"/>
<rect x="287" y="125" width="77" height="3" rx="1.5" fill="#1562AF" fill-opacity="0.34"/>
<rect x="328" y="136" width="36" height="3" rx="1.5" fill="#1562AF" fill-opacity="0.14"/>
<rect x="184" y="136" width="137" height="3" rx="1.5" fill="#1562AF" fill-opacity="0.14"/>
<rect x="72" y="136" width="105" height="3" rx="1.5" fill="#1562AF" fill-opacity="0.34"/>
<rect y="136" width="65" height="3" rx="1.5" fill="#1562AF" fill-opacity="0.14"/>
<rect y="70" width="144" height="3" rx="1.5" fill="#1562AF" fill-opacity="0.14"/>
<rect x="151" y="70" width="136" height="3" rx="1.5" fill="#1562AF" fill-opacity="0.34"/>
<rect width="46" height="3" rx="1.5" transform="matrix(-1 0 0 1 340 70)" fill="#1562AF" fill-opacity="0.14"/>
<rect x="122" y="81" width="111" height="3" rx="1.5" fill="#1562AF" fill-opacity="0.14"/>
<rect x="122" y="222" width="111" height="3" rx="1.5" fill="#1562AF" fill-opacity="0.14"/>
<rect y="81" width="115" height="3" rx="1.5" fill="#1562AF" fill-opacity="0.34"/>
<rect y="222" width="115" height="3" rx="1.5" fill="#1562AF" fill-opacity="0.34"/>
<rect x="275" y="81" width="28" height="3" rx="1.5" fill="#1562AF" fill-opacity="0.34"/>
<rect x="240" y="81" width="28" height="3" rx="1.5" fill="#1562AF" fill-opacity="0.14"/>
<rect x="240" y="222" width="37" height="3" rx="1.5" fill="#1562AF" fill-opacity="0.14"/>
<rect x="310" y="81" width="83" height="3" rx="1.5" fill="#1562AF" fill-opacity="0.14"/>
<rect x="284" y="92" width="89" height="3" rx="1.5" fill="#1562AF" fill-opacity="0.14"/>
<rect x="284" y="233" width="19" height="3" rx="1.5" fill="#1562AF" fill-opacity="0.14"/>
<rect x="134" y="92" width="143" height="3" rx="1.5" fill="#1562AF" fill-opacity="0.34"/>
<rect x="134" y="233" width="143" height="3" rx="1.5" fill="#1562AF" fill-opacity="0.34"/>
<rect x="95" y="92" width="32" height="3" rx="1.5" fill="#1562AF" fill-opacity="0.14"/>
<rect x="95" y="233" width="32" height="3" rx="1.5" fill="#1562AF" fill-opacity="0.14"/>
<rect y="92" width="88" height="3" rx="1.5" fill="#1562AF" fill-opacity="0.14"/>
<rect y="233" width="88" height="3" rx="1.5" fill="#1562AF" fill-opacity="0.14"/>
<rect x="349" y="103" width="60" height="3" rx="1.5" fill="#1562AF" fill-opacity="0.34"/>
<rect x="201" y="103" width="142" height="3" rx="1.5" fill="#1562AF" fill-opacity="0.14"/>
<rect x="201" y="244" width="51" height="3" rx="1.5" fill="#1562AF" fill-opacity="0.14"/>
<rect x="259" y="244" width="62" height="3" rx="1.5" fill="#1562AF" fill-opacity="0.34"/>
<rect x="163" y="103" width="31" height="3" rx="1.5" fill="#1562AF" fill-opacity="0.14"/>
<rect x="106" y="103" width="51" height="3" rx="1.5" fill="#1562AF" fill-opacity="0.14"/>
<rect x="106" y="244" width="88" height="3" rx="1.5" fill="#1562AF" fill-opacity="0.14"/>
<rect x="32" y="103" width="67" height="3" rx="1.5" fill="#1562AF" fill-opacity="0.34"/>
<rect y="244" width="99" height="3" rx="1.5" fill="#1562AF" fill-opacity="0.34"/>
<rect y="103" width="25" height="3" rx="1.5" fill="#1562AF" fill-opacity="0.14"/>
<rect y="114" width="72" height="3" rx="1.5" fill="#1562AF" fill-opacity="0.34"/>
<rect y="255" width="72" height="3" rx="1.5" fill="#1562AF" fill-opacity="0.14"/>
<rect x="79" y="114" width="97" height="3" rx="1.5" fill="#1562AF" fill-opacity="0.14"/>
<rect x="79" y="255" width="55" height="3" rx="1.5" fill="#1562AF" fill-opacity="0.34"/>
<rect width="61" height="3" rx="1.5" transform="matrix(-1 0 0 1 1250 197)" fill="#1562AF" fill-opacity="0.14"/>
<rect width="94" height="3" rx="1.5" transform="matrix(-1 0 0 1 1350 197)" fill="#1562AF" fill-opacity="0.34"/>
<rect width="82" height="3" rx="1.5" transform="matrix(-1 0 0 1 1438 197)" fill="#1562AF" fill-opacity="0.14"/>
<rect width="68" height="3" rx="1.5" transform="matrix(-1 0 0 1 1183 197)" fill="#1562AF" fill-opacity="0.34"/>
<rect width="42" height="3" rx="1.5" transform="matrix(-1 0 0 1 1109 208)" fill="#1562AF" fill-opacity="0.34"/>
<rect width="32" height="3" rx="1.5" transform="matrix(-1 0 0 1 1147 208)" fill="#1562AF" fill-opacity="0.14"/>
<rect width="122" height="3" rx="1.5" transform="matrix(-1 0 0 1 1275 208)" fill="#1562AF" fill-opacity="0.14"/>
<rect width="93" height="3" rx="1.5" transform="matrix(-1 0 0 1 1374 208)" fill="#1562AF" fill-opacity="0.14"/>
<rect width="58" height="3" rx="1.5" transform="matrix(-1 0 0 1 1438 208)" fill="#1562AF" fill-opacity="0.34"/>
<rect width="118" height="3" rx="1.5" transform="matrix(-1 0 0 1 1438 30)" fill="#1562AF" fill-opacity="0.14"/>
<rect width="128" height="3" rx="1.5" transform="matrix(-1 0 0 1 1438 219)" fill="#1562AF" fill-opacity="0.14"/>
<rect width="112" height="3" rx="1.5" transform="matrix(-1 0 0 1 1314 30)" fill="#1562AF" fill-opacity="0.34"/>
<rect width="121" height="3" rx="1.5" transform="matrix(-1 0 0 1 1257 219)" fill="#1562AF" fill-opacity="0.14"/>
<rect x="1158" y="30" width="38" height="3" rx="1.5" fill="#1562AF" fill-opacity="0.14"/>
<rect x="1263" y="219" width="41" height="3" rx="1.5" fill="#1562AF" fill-opacity="0.34"/>
<rect width="92" height="3" rx="1.5" transform="matrix(-1 0 0 1 1338 41)" fill="#1562AF" fill-opacity="0.14"/>
<rect width="99" height="3" rx="1.5" transform="matrix(-1 0 0 1 1330 230)" fill="#1562AF" fill-opacity="0.14"/>
<rect width="94" height="3" rx="1.5" transform="matrix(-1 0 0 1 1438 41)" fill="#1562AF" fill-opacity="0.34"/>
<rect width="102" height="3" rx="1.5" transform="matrix(-1 0 0 1 1438 230)" fill="#1562AF" fill-opacity="0.34"/>
<rect width="23" height="3" rx="1.5" transform="matrix(-1 0 0 1 1212 41)" fill="#1562AF" fill-opacity="0.34"/>
<rect width="23" height="3" rx="1.5" transform="matrix(-1 0 0 1 1241 41)" fill="#1562AF" fill-opacity="0.14"/>
<rect width="62" height="3" rx="1.5" transform="matrix(-1 0 0 1 1225 230)" fill="#1562AF" fill-opacity="0.34"/>
<rect width="68" height="3" rx="1.5" transform="matrix(-1 0 0 1 1183 41)" fill="#1562AF" fill-opacity="0.14"/>
<rect width="79" height="3" rx="1.5" transform="matrix(-1 0 0 1 1186 84)" fill="#1562AF" fill-opacity="0.14"/>
<rect width="79" height="3" rx="1.5" transform="matrix(-1 0 0 1 1186 241)" fill="#1562AF" fill-opacity="0.34"/>
<rect width="127" height="3" rx="1.5" transform="matrix(-1 0 0 1 1319 84)" fill="#1562AF" fill-opacity="0.14"/>
<rect width="127" height="3" rx="1.5" transform="matrix(-1 0 0 1 1319 241)" fill="#1562AF" fill-opacity="0.14"/>
<rect width="29" height="3" rx="1.5" transform="matrix(-1 0 0 1 1354 84)" fill="#1562AF" fill-opacity="0.34"/>
<rect width="29" height="3" rx="1.5" transform="matrix(-1 0 0 1 1354 241)" fill="#1562AF" fill-opacity="0.34"/>
<rect width="78" height="3" rx="1.5" transform="matrix(-1 0 0 1 1438 84)" fill="#1562AF" fill-opacity="0.14"/>
<rect width="78" height="3" rx="1.5" transform="matrix(-1 0 0 1 1438 241)" fill="#1562AF" fill-opacity="0.14"/>
<rect width="53" height="3" rx="1.5" transform="matrix(-1 0 0 1 1128 95)" fill="#1562AF" fill-opacity="0.34"/>
<rect width="53" height="3" rx="1.5" transform="matrix(-1 0 0 1 1128 252)" fill="#1562AF" fill-opacity="0.14"/>
<rect width="126" height="3" rx="1.5" transform="matrix(-1 0 0 1 1260 95)" fill="#1562AF" fill-opacity="0.14"/>
<rect width="126" height="3" rx="1.5" transform="matrix(-1 0 0 1 1260 252)" fill="#1562AF" fill-opacity="0.14"/>
<rect width="27" height="3" rx="1.5" transform="matrix(-1 0 0 1 1293 95)" fill="#1562AF" fill-opacity="0.34"/>
<rect width="45" height="3" rx="1.5" transform="matrix(-1 0 0 1 1344 95)" fill="#1562AF" fill-opacity="0.14"/>
<rect width="78" height="3" rx="1.5" transform="matrix(-1 0 0 1 1344 252)" fill="#1562AF" fill-opacity="0.34"/>
<rect width="60" height="3" rx="1.5" transform="matrix(-1 0 0 1 1410 95)" fill="#1562AF" fill-opacity="0.14"/>
<rect width="88" height="3" rx="1.5" transform="matrix(-1 0 0 1 1438 252)" fill="#1562AF" fill-opacity="0.14"/>
<rect width="22" height="3" rx="1.5" transform="matrix(-1 0 0 1 1438 95)" fill="#1562AF" fill-opacity="0.14"/>
<rect width="64" height="3" rx="1.5" transform="matrix(-1 0 0 1 1438 106)" fill="#1562AF" fill-opacity="0.34"/>
<rect width="64" height="3" rx="1.5" transform="matrix(-1 0 0 1 1438 263)" fill="#1562AF" fill-opacity="0.34"/>
<rect width="86" height="3" rx="1.5" transform="matrix(-1 0 0 1 1368 106)" fill="#1562AF" fill-opacity="0.14"/>
<rect width="154" height="3" rx="1.5" transform="matrix(-1 0 0 1 1368 263)" fill="#1562AF" fill-opacity="0.14"/>
<g filter="url(#filter2_f_401_609)">
<rect x="272" y="235" width="891" height="52" fill="#14589C"/>
</g>
<g clip-path="url(#clip1_401_609)">
<path d="M716.235 82.7646L716.235 82.7647C716.919 83.4483 716.919 84.5516 716.235 85.2353L716.235 85.2353L701.238 100.235C700.554 100.919 699.446 100.919 698.763 100.235C698.079 99.5517 698.079 98.4483 698.763 97.7646L698.763 97.7646L711.991 84.5302L712.521 83.9999L711.991 83.4697L698.763 70.2377C698.763 70.2377 698.763 70.2377 698.763 70.2377C698.079 69.5541 698.079 68.4462 698.762 67.7625C698.762 67.7625 698.762 67.7625 698.762 67.7624C698.762 67.7624 698.763 67.7623 698.763 67.7623C699.446 67.0795 700.554 67.0795 701.238 67.7625C701.238 67.7625 701.238 67.7625 701.238 67.7626L716.235 82.7646ZM740 97.25C740.969 97.25 741.75 98.0314 741.75 99C741.75 99.9686 740.969 100.75 740 100.75H717.5C716.531 100.75 715.75 99.9686 715.75 99C715.75 98.0314 716.531 97.25 717.5 97.25H740Z" stroke="#3294F8" stroke-width="1.5"/>
</g>
<path d="M670.484 142.27V149.758C669.375 150.773 667.129 151.281 663.746 151.281C663.082 151.281 662.496 151.254 661.988 151.199C661.488 151.145 661.027 151.074 660.605 150.988C660.191 150.902 659.836 150.758 659.539 150.555C659.242 150.344 658.98 150.133 658.754 149.922C658.527 149.711 658.344 149.406 658.203 149.008C658.062 148.602 657.945 148.211 657.852 147.836C657.766 147.461 657.699 146.957 657.652 146.324C657.613 145.691 657.586 145.086 657.57 144.508C657.555 143.93 657.547 143.188 657.547 142.281C657.547 141.508 657.551 140.848 657.559 140.301C657.574 139.754 657.602 139.195 657.641 138.625C657.688 138.055 657.746 137.582 657.816 137.207C657.895 136.824 657.996 136.441 658.121 136.059C658.254 135.668 658.406 135.355 658.578 135.121C658.75 134.879 658.965 134.641 659.223 134.406C659.48 134.172 659.766 133.992 660.078 133.867C660.398 133.742 660.77 133.629 661.191 133.527C661.613 133.426 662.074 133.359 662.574 133.328C663.074 133.289 663.641 133.27 664.273 133.27C664.312 133.27 664.371 133.27 664.449 133.27C664.996 133.27 665.41 133.273 665.691 133.281C665.973 133.289 666.352 133.32 666.828 133.375C667.312 133.422 667.684 133.5 667.941 133.609C668.199 133.711 668.496 133.867 668.832 134.078C669.168 134.281 669.418 134.535 669.582 134.84C669.746 135.137 669.891 135.516 670.016 135.977C670.141 136.438 670.203 136.969 670.203 137.57C670.203 137.711 670.195 137.906 670.18 138.156L668.082 138.555L667.953 136.246C667.938 135.746 667.652 135.426 667.098 135.285C666.543 135.137 665.492 135.062 663.945 135.062C662.891 135.062 662.094 135.129 661.555 135.262C661.016 135.387 660.641 135.582 660.43 135.848C660.219 136.113 660.09 136.508 660.043 137.031C659.973 138.633 659.938 140.273 659.938 141.953C659.938 143.641 659.973 145.281 660.043 146.875C660.082 147.719 660.148 148.266 660.242 148.516C660.391 148.898 660.73 149.156 661.262 149.289C661.762 149.414 662.633 149.477 663.875 149.477C666.547 149.477 668.027 149.297 668.316 148.938C668.309 148.133 668.305 146.5 668.305 144.039H665.352L665.152 142.27H670.484ZM676.426 151H674.047V133.539H676.426V151ZM689.891 135.344H685.332V151H682.953V135.344H678.488V133.539H689.891V135.344ZM704.445 151H702.066V142.984H694.262V151H691.883V133.539H694.262V141.133H702.066V133.539H704.445V151ZM721.355 133.539V144.473C721.355 145.41 721.312 146.215 721.227 146.887C721.148 147.559 721.004 148.156 720.793 148.68C720.582 149.195 720.316 149.617 719.996 149.945C719.684 150.266 719.27 150.531 718.754 150.742C718.246 150.945 717.676 151.086 717.043 151.164C716.41 151.242 715.645 151.281 714.746 151.281C713.879 151.281 713.141 151.246 712.531 151.176C711.922 151.105 711.359 150.977 710.844 150.789C710.328 150.594 709.91 150.34 709.59 150.027C709.277 149.707 709.008 149.293 708.781 148.785C708.555 148.27 708.395 147.664 708.301 146.969C708.215 146.273 708.172 145.441 708.172 144.473V133.539H710.551V144.777C710.551 145.426 710.551 145.895 710.551 146.184C710.559 146.473 710.582 146.828 710.621 147.25C710.66 147.664 710.711 147.949 710.773 148.105C710.836 148.254 710.938 148.441 711.078 148.668C711.227 148.895 711.391 149.039 711.57 149.102C711.758 149.156 712.012 149.227 712.332 149.312C712.652 149.398 712.996 149.449 713.363 149.465C713.738 149.473 714.203 149.477 714.758 149.477C715.414 149.477 715.961 149.457 716.398 149.418C716.844 149.379 717.23 149.301 717.559 149.184C717.887 149.066 718.137 148.934 718.309 148.785C718.488 148.629 718.629 148.402 718.73 148.105C718.84 147.809 718.91 147.5 718.941 147.18C718.973 146.859 718.988 146.434 718.988 145.902L718.977 133.539H721.355ZM737.398 145.973C737.391 146.465 737.371 146.898 737.34 147.273C737.316 147.641 737.273 147.988 737.211 148.316C737.148 148.645 737.082 148.922 737.012 149.148C736.941 149.375 736.828 149.59 736.672 149.793C736.523 149.988 736.379 150.148 736.238 150.273C736.098 150.391 735.895 150.5 735.629 150.602C735.371 150.695 735.121 150.766 734.879 150.812C734.637 150.859 734.312 150.898 733.906 150.93C733.508 150.961 733.121 150.98 732.746 150.988C732.379 150.996 731.914 151 731.352 151H725.094V133.539H731.727C732.609 133.539 733.34 133.586 733.918 133.68C734.504 133.766 735.02 133.926 735.465 134.16C735.918 134.395 736.246 134.727 736.449 135.156C736.652 135.586 736.758 136.133 736.766 136.797L736.777 138.062C736.777 138.594 736.758 139.027 736.719 139.363C736.68 139.699 736.609 140.004 736.508 140.277C736.414 140.551 736.27 140.766 736.074 140.922C735.879 141.078 735.641 141.211 735.359 141.32C735.086 141.422 734.73 141.512 734.293 141.59C734.824 141.645 735.281 141.762 735.664 141.941C736.047 142.121 736.348 142.336 736.566 142.586C736.793 142.836 736.969 143.152 737.094 143.535C737.219 143.918 737.301 144.293 737.34 144.66C737.379 145.027 737.398 145.465 737.398 145.973ZM734.457 137.559C734.457 137.543 734.457 137.52 734.457 137.488C734.457 137.16 734.457 136.93 734.457 136.797C734.457 136.656 734.434 136.488 734.387 136.293C734.348 136.09 734.305 135.957 734.258 135.895C734.219 135.832 734.121 135.75 733.965 135.648C733.816 135.539 733.668 135.477 733.52 135.461C733.371 135.438 733.137 135.41 732.816 135.379C732.504 135.34 732.191 135.32 731.879 135.32C731.566 135.32 731.141 135.32 730.602 135.32H727.449V140.922H729.805C730.828 140.922 731.656 140.895 732.289 140.84C732.922 140.777 733.391 140.676 733.695 140.535C734.008 140.387 734.211 140.23 734.305 140.066C734.406 139.902 734.457 139.684 734.457 139.41V137.559ZM735.078 145.41C735.062 144.48 735.027 143.895 734.973 143.652C734.863 143.223 734.594 142.93 734.164 142.773C733.633 142.57 732.445 142.465 730.602 142.457C730.477 142.457 730.34 142.457 730.191 142.457H727.449V149.23H731.926C732.832 149.23 733.516 149.156 733.977 149.008C734.438 148.852 734.742 148.621 734.891 148.316C735.039 148.012 735.109 147.562 735.102 146.969L735.078 145.41ZM749.434 151H740.562V133.539H742.941V149.207H749.668L749.434 151ZM758.656 151.281C757.977 151.281 757.371 151.266 756.84 151.234C756.316 151.203 755.832 151.125 755.387 151C754.941 150.883 754.559 150.773 754.238 150.672C753.926 150.57 753.641 150.379 753.383 150.098C753.133 149.809 752.926 149.562 752.762 149.359C752.598 149.148 752.457 148.805 752.34 148.328C752.223 147.844 752.137 147.434 752.082 147.098C752.027 146.754 751.98 146.227 751.941 145.516C751.91 144.805 751.891 144.195 751.883 143.688C751.883 143.18 751.883 142.445 751.883 141.484C751.883 140.328 751.914 139.367 751.977 138.602C752.039 137.836 752.16 137.125 752.34 136.469C752.527 135.812 752.77 135.297 753.066 134.922C753.371 134.547 753.781 134.227 754.297 133.961C754.82 133.688 755.426 133.504 756.113 133.41C756.809 133.309 757.656 133.258 758.656 133.258C759.602 133.258 760.41 133.305 761.082 133.398C761.754 133.492 762.348 133.66 762.863 133.902C763.387 134.137 763.805 134.434 764.117 134.793C764.438 135.145 764.699 135.609 764.902 136.188C765.105 136.766 765.242 137.414 765.312 138.133C765.391 138.844 765.43 139.711 765.43 140.734C765.43 143.625 765.387 145.527 765.301 146.441C765.152 148.004 764.793 149.121 764.223 149.793C763.621 150.512 762.598 150.965 761.152 151.152C760.465 151.238 759.633 151.281 758.656 151.281ZM760.332 135.109C759.887 135.078 759.328 135.062 758.656 135.062C757.984 135.062 757.426 135.078 756.98 135.109C756.535 135.141 756.145 135.207 755.809 135.309C755.48 135.41 755.227 135.523 755.047 135.648C754.867 135.773 754.719 135.969 754.602 136.234C754.492 136.492 754.418 136.758 754.379 137.031C754.348 137.305 754.324 137.676 754.309 138.145C754.285 139.59 754.273 141.043 754.273 142.504C754.273 144.707 754.332 146.215 754.449 147.027C754.637 148.246 754.992 148.949 755.516 149.137C755.906 149.363 756.953 149.477 758.656 149.477C760.359 149.477 761.406 149.363 761.797 149.137C761.945 149.082 762.078 148.992 762.195 148.867C762.32 148.742 762.422 148.574 762.5 148.363C762.586 148.152 762.66 147.941 762.723 147.73C762.785 147.512 762.836 147.234 762.875 146.898C762.914 146.562 762.945 146.262 762.969 145.996C762.992 145.723 763.008 145.379 763.016 144.965C763.023 144.543 763.027 144.195 763.027 143.922C763.035 143.648 763.039 143.285 763.039 142.832C763.039 141.254 763.027 139.691 763.004 138.145C762.988 137.676 762.961 137.305 762.922 137.031C762.891 136.758 762.816 136.492 762.699 136.234C762.59 135.969 762.445 135.773 762.266 135.648C762.086 135.523 761.828 135.41 761.492 135.309C761.164 135.207 760.777 135.141 760.332 135.109ZM781.461 142.27V149.758C780.352 150.773 778.105 151.281 774.723 151.281C774.059 151.281 773.473 151.254 772.965 151.199C772.465 151.145 772.004 151.074 771.582 150.988C771.168 150.902 770.812 150.758 770.516 150.555C770.219 150.344 769.957 150.133 769.73 149.922C769.504 149.711 769.32 149.406 769.18 149.008C769.039 148.602 768.922 148.211 768.828 147.836C768.742 147.461 768.676 146.957 768.629 146.324C768.59 145.691 768.562 145.086 768.547 144.508C768.531 143.93 768.523 143.188 768.523 142.281C768.523 141.508 768.527 140.848 768.535 140.301C768.551 139.754 768.578 139.195 768.617 138.625C768.664 138.055 768.723 137.582 768.793 137.207C768.871 136.824 768.973 136.441 769.098 136.059C769.23 135.668 769.383 135.355 769.555 135.121C769.727 134.879 769.941 134.641 770.199 134.406C770.457 134.172 770.742 133.992 771.055 133.867C771.375 133.742 771.746 133.629 772.168 133.527C772.59 133.426 773.051 133.359 773.551 133.328C774.051 133.289 774.617 133.27 775.25 133.27C775.289 133.27 775.348 133.27 775.426 133.27C775.973 133.27 776.387 133.273 776.668 133.281C776.949 133.289 777.328 133.32 777.805 133.375C778.289 133.422 778.66 133.5 778.918 133.609C779.176 133.711 779.473 133.867 779.809 134.078C780.145 134.281 780.395 134.535 780.559 134.84C780.723 135.137 780.867 135.516 780.992 135.977C781.117 136.438 781.18 136.969 781.18 137.57C781.18 137.711 781.172 137.906 781.156 138.156L779.059 138.555L778.93 136.246C778.914 135.746 778.629 135.426 778.074 135.285C777.52 135.137 776.469 135.062 774.922 135.062C773.867 135.062 773.07 135.129 772.531 135.262C771.992 135.387 771.617 135.582 771.406 135.848C771.195 136.113 771.066 136.508 771.02 137.031C770.949 138.633 770.914 140.273 770.914 141.953C770.914 143.641 770.949 145.281 771.02 146.875C771.059 147.719 771.125 148.266 771.219 148.516C771.367 148.898 771.707 149.156 772.238 149.289C772.738 149.414 773.609 149.477 774.852 149.477C777.523 149.477 779.004 149.297 779.293 148.938C779.285 148.133 779.281 146.5 779.281 144.039H776.328L776.129 142.27H781.461Z" fill="#3294F8"/>
</g>
<defs>
<filter id="filter0_f_401_609" x="-530" y="-496" width="1036" height="1036" filterUnits="userSpaceOnUse" color-interpolation-filters="sRGB">
<feFlood flood-opacity="0" result="BackgroundImageFix"/>
<feBlend mode="normal" in="SourceGraphic" in2="BackgroundImageFix" result="shape"/>
<feGaussianBlur stdDeviation="200" result="effect1_foregroundBlur_401_609"/>
</filter>
<filter id="filter1_f_401_609" x="909.427" y="-402.708" width="891.29" height="891.29" filterUnits="userSpaceOnUse" color-interpolation-filters="sRGB">
<feFlood flood-opacity="0" result="BackgroundImageFix"/>
<feBlend mode="normal" in="SourceGraphic" in2="BackgroundImageFix" result="shape"/>
<feGaussianBlur stdDeviation="184" result="effect1_foregroundBlur_401_609"/>
</filter>
<filter id="filter2_f_401_609" x="60" y="23" width="1315" height="476" filterUnits="userSpaceOnUse" color-interpolation-filters="sRGB">
<feFlood flood-opacity="0" result="BackgroundImageFix"/>
<feBlend mode="normal" in="SourceGraphic" in2="BackgroundImageFix" result="shape"/>
<feGaussianBlur stdDeviation="106" result="effect1_foregroundBlur_401_609"/>
</filter>
<clipPath id="clip0_401_609">
<rect width="1440" height="296" fill="white"/>
</clipPath>
<clipPath id="clip1_401_609">
<rect width="45" height="40" fill="white" transform="translate(697.5 64)"/>
</clipPath>
</defs>
</svg>
